<svg xmlns="http://www.w3.org/2000/svg" width="256" height="256" xml:space="preserve"><g style="stroke:none;stroke-width:0;stroke-dasharray:none;stroke-linecap:butt;stroke-linejoin:miter;stroke-miterlimit:10;fill:none;fill-rule:nonzero;opacity:1" transform="matrix(2.81 0 0 2.81 1.407 1.407)"><path d="M45 69.65c-13.592 0-24.65-11.059-24.65-24.65S31.408 20.35 45 20.35 69.65 31.408 69.65 45 58.592 69.65 45 69.65zm0-45.3c-11.386 0-20.65 9.264-20.65 20.65 0 11.387 9.264 20.65 20.65 20.65 11.387 0 20.65-9.264 20.65-20.65S56.387 24.35 45 24.35z" style="stroke:none;stroke-width:1px;stroke-dasharray:none;stroke-linecap:butt;stroke-linejoin:miter;stroke-miterlimit:10;fill:#fff;fill-rule:nonzero;opacity:1"/><rect x="43" rx="0" ry="0" width="4" height="22.34" style="stroke:none;stroke-width:1px;stroke-dasharray:none;stroke-linecap:butt;stroke-linejoin:miter;stroke-miterlimit:10;fill:#fff;fill-rule:nonzero;opacity:1"/><rect x="43" y="67.66" rx="0" ry="0" width="4" height="22.34" style="stroke:none;stroke-width:1px;stroke-dasharray:none;stroke-linecap:butt;stroke-linejoin:miter;stroke-miterlimit:10;fill:#fff;fill-rule:nonzero;opacity:1"/><rect y="43" rx="0" ry="0" width="22.34" height="4" style="stroke:none;stroke-width:1px;stroke-dasharray:none;stroke-linecap:butt;stroke-linejoin:miter;stroke-miterlimit:10;fill:#fff;fill-rule:nonzero;opacity:1"/><rect x="67.66" y="43" rx="0" ry="0" width="22.34" height="4" style="stroke:none;stroke-width:1px;stroke-dasharray:none;stroke-linecap:butt;stroke-linejoin:miter;stroke-miterlimit:10;fill:#fff;fill-rule:nonzero;opacity:1"/><rect x="57.75" y="19.08" rx="0" ry="0" width="22.34" height="4" style="stroke:none;stroke-width:1px;stroke-dasharray:none;stroke-linecap:butt;stroke-linejoin:miter;stroke-miterlimit:10;fill:#fff;fill-rule:nonzero;opacity:1" transform="rotate(-45.001 68.92 21.081)"/><rect x="9.91" y="66.92" rx="0" ry="0" width="22.34" height="4" style="stroke:none;stroke-width:1px;stroke-dasharray:none;stroke-linecap:butt;stroke-linejoin:miter;stroke-miterlimit:10;fill:#fff;fill-rule:nonzero;opacity:1" transform="rotate(-45.001 21.08 68.92)"/><rect x="19.08" y="9.91" rx="0" ry="0" width="4" height="22.34" style="stroke:none;stroke-width:1px;stroke-dasharray:none;stroke-linecap:butt;stroke-linejoin:miter;stroke-miterlimit:10;fill:#fff;fill-rule:nonzero;opacity:1" transform="rotate(-45.001 21.08 21.08)"/><rect x="66.92" y="57.75" rx="0" ry="0" width="4" height="22.34" style="stroke:none;stroke-width:1px;stroke-dasharray:none;stroke-linecap:butt;stroke-linejoin:miter;stroke-miterlimit:10;fill:#fff;fill-rule:nonzero;opacity:1" transform="rotate(-45.001 68.92 68.921)"/><rect x="65.69" y="33.12" rx="0" ry="0" width="6.34" height="4" style="stroke:none;stroke-width:1px;stroke-dasharray:none;stroke-linecap:butt;stroke-linejoin:miter;stroke-miterlimit:10;fill:#fff;fill-rule:nonzero;opacity:1" transform="rotate(-22.508 68.864 35.117)"/><rect x="17.97" y="52.88" rx="0" ry="0" width="6.34" height="4" style="stroke:none;stroke-width:1px;stroke-dasharray:none;stroke-linecap:butt;stroke-linejoin:miter;stroke-miterlimit:10;fill:#fff;fill-rule:nonzero;opacity:1" transform="rotate(-22.508 21.138 54.885)"/><rect x="33.12" y="17.97" rx="0" ry="0" width="4" height="6.34" style="stroke:none;stroke-width:1px;stroke-dasharray:none;stroke-linecap:butt;stroke-linejoin:miter;stroke-miterlimit:10;fill:#fff;fill-rule:nonzero;opacity:1" transform="rotate(-22.5 35.116 21.138)"/><rect x="52.88" y="65.69" rx="0" ry="0" width="4" height="6.34" style="stroke:none;stroke-width:1px;stroke-dasharray:none;stroke-linecap:butt;stroke-linejoin:miter;stroke-miterlimit:10;fill:#fff;fill-rule:nonzero;opacity:1" transform="rotate(-22.5 54.878 68.857)"/><rect x="19.14" y="31.94" rx="0" ry="0" width="4" height="6.34" style="stroke:none;stroke-width:1px;stroke-dasharray:none;stroke-linecap:butt;stroke-linejoin:miter;stroke-miterlimit:10;fill:#fff;fill-rule:nonzero;opacity:1" transform="rotate(-67.5 21.137 35.115)"/><rect x="66.86" y="51.71" rx="0" ry="0" width="4" height="6.34" style="stroke:none;stroke-width:1px;stroke-dasharray:none;stroke-linecap:butt;stroke-linejoin:miter;stroke-miterlimit:10;fill:#fff;fill-rule:nonzero;opacity:1" transform="rotate(-67.5 68.862 54.883)"/><rect x="51.71" y="19.14" rx="0" ry="0" width="6.34" height="4" style="stroke:none;stroke-width:1px;stroke-dasharray:none;stroke-linecap:butt;stroke-linejoin:miter;stroke-miterlimit:10;fill:#fff;fill-rule:nonzero;opacity:1" transform="rotate(-67.492 54.885 21.139)"/><rect x="31.94" y="66.86" rx="0" ry="0" width="6.34" height="4" style="stroke:none;stroke-width:1px;stroke-dasharray:none;stroke-linecap:butt;stroke-linejoin:miter;stroke-miterlimit:10;fill:#fff;fill-rule:nonzero;opacity:1" transform="rotate(-67.492 35.117 68.864)"/></g></svg>